<?xml version="1.0" standalone="no"?>
<!DOCTYPE svg PUBLIC "-//W3C//DTD SVG 20010904//EN"
 "http://www.w3.org/TR/2001/REC-SVG-20010904/DTD/svg10.dtd">
<svg version="1.0" xmlns="http://www.w3.org/2000/svg"
 width="696.000000pt" height="621.000000pt" viewBox="0 0 696.000000 621.000000"
 preserveAspectRatio="xMidYMid meet">

<g transform="translate(0.000000,621.000000) scale(0.100000,-0.100000)"
fill="#E9ECEF" stroke="none">
<path d="M2295 6053 c3 -16 17 -45 30 -65 15 -22 21 -40 15 -43 -6 -4 -50 5
-100 19 -49 14 -91 26 -94 26 -2 0 -10 -17 -17 -37 -27 -80 -7 -306 36 -418
52 -136 52 -129 1 -187 -60 -66 -108 -153 -141 -253 -30 -92 -55 -213 -55
-267 0 -21 -4 -38 -10 -38 -6 0 -10 -53 -10 -140 0 -77 4 -140 9 -140 4 0 11
-28 14 -62 6 -79 36 -208 47 -208 5 0 18 30 30 68 144 444 351 707 625 792 90
28 229 36 336 20 103 -15 265 -68 372 -121 43 -22 81 -38 83 -36 2 2 -1 18 -7
34 -5 17 -9 51 -7 74 3 44 3 44 45 47 26 2 75 -7 125 -23 166 -53 196 -56 558
-66 190 -4 370 -13 400 -20 82 -16 176 -63 220 -109 78 -81 126 -214 155 -430
9 -63 19 -135 23 -160 l7 -45 43 116 c23 64 42 120 42 124 0 4 6 21 14 38 27
62 37 123 43 262 6 163 -9 261 -61 384 -79 187 -181 297 -363 391 -60 31 -89
53 -107 81 -88 132 -262 239 -480 294 -237 60 -520 75 -1081 55 -286 -10 -395
-10 -480 -1 -106 11 -229 43 -240 62 -13 20 -27 8 -20 -18z"/>
<path d="M2560 4217 c-3 -3 -50 -6 -105 -7 -55 -1 -155 -4 -222 -7 l-123 -6 0
-98 c0 -88 2 -99 20 -109 35 -19 50 -54 55 -134 9 -139 71 -386 113 -448 66
-99 284 -188 462 -188 68 0 214 24 285 46 67 22 109 48 174 109 96 90 160 203
212 375 12 41 29 85 38 97 37 52 118 54 163 5 16 -17 33 -57 48 -112 62 -238
198 -412 366 -469 76 -25 224 -51 296 -51 127 0 297 52 400 122 58 40 104 121
122 215 3 11 13 63 24 114 11 52 23 126 27 164 9 93 22 133 51 152 23 14 24
21 24 114 l0 99 -72 2 c-40 1 -102 2 -138 3 -36 1 -135 5 -220 9 -258 12 -492
-17 -630 -76 -114 -50 -319 -84 -434 -74 -101 10 -243 41 -301 66 -57 25 -213
66 -276 74 -72 9 -354 19 -359 13z m248 -122 c2 -2 -28 -6 -65 -9 -159 -16
-248 -70 -278 -169 -26 -81 -31 -249 -11 -327 40 -154 112 -211 336 -262 l55
-13 -78 -3 c-128 -5 -298 49 -359 115 -88 94 -120 271 -81 448 13 61 24 85 56
121 45 51 75 69 143 85 86 20 263 29 282 14z m1590 -1 c2 -1 -23 -6 -55 -9
-32 -4 -120 -27 -195 -52 -217 -69 -240 -104 -194 -296 31 -131 66 -204 127
-272 55 -59 157 -118 240 -137 l54 -13 -74 -3 c-132 -5 -247 43 -342 145 -69
74 -112 169 -136 303 -15 89 -12 150 12 186 41 64 270 141 465 157 33 3 91 -2
98 -9z"/>
<path d="M2156 3335 c26 -349 130 -711 258 -895 l31 -45 5 70 5 70 39 -100
c77 -200 160 -355 294 -548 70 -100 149 -175 263 -247 30 -19 81 -58 114 -88
83 -75 162 -127 264 -175 120 -57 164 -56 291 4 152 73 162 81 554 449 59 56
124 129 157 177 65 95 160 284 215 428 l39 100 5 -70 5 -69 44 67 c84 130 147
304 195 540 26 127 60 386 52 394 -4 5 -10 -13 -36 -117 -47 -186 -154 -453
-185 -459 -5 -1 -17 35 -25 81 l-15 83 -38 -115 c-124 -372 -211 -563 -294
-646 -14 -14 -27 -23 -29 -21 -5 5 -80 227 -99 295 -41 144 -125 239 -282 319
-92 46 -99 48 -193 51 -69 3 -115 -1 -153 -12 -68 -20 -108 -20 -171 -1 -73
22 -209 19 -284 -6 -120 -41 -261 -151 -307 -240 -13 -25 -42 -99 -65 -165
-68 -193 -72 -204 -80 -204 -14 0 -89 135 -138 250 -27 63 -78 198 -113 299
-65 192 -70 197 -83 96 -11 -78 -20 -84 -49 -34 -42 71 -95 213 -143 379 -55
192 -54 189 -48 105z m1660 -704 c284 -65 374 -140 374 -314 l0 -79 -92 -92
c-120 -120 -220 -181 -295 -181 -70 0 -92 22 -108 107 l-11 63 -136 3 -136 3
-7 -55 c-18 -143 -110 -164 -265 -60 -81 54 -196 158 -214 193 -38 73 -27 189
25 261 52 72 234 142 454 174 77 11 323 -2 411 -23z"/>
<path d="M1127 883 c-3 -5 -8 -23 -12 -41 -6 -30 -5 -33 24 -38 17 -4 31 -11
31 -16 0 -5 10 -12 23 -17 17 -7 24 -4 30 11 4 11 4 25 0 30 -4 7 -1 8 7 3 10
-6 12 -3 7 14 -5 19 -2 21 16 15 37 -11 42 -23 19 -44 -12 -12 -22 -29 -22
-39 0 -26 -46 -37 -66 -16 -9 8 -33 15 -54 15 l-39 0 -11 -57 c-7 -32 -16 -67
-20 -78 -5 -11 -11 -37 -15 -58 -5 -30 -2 -42 11 -52 17 -12 16 -13 -4 -19
-23 -8 -29 -30 -12 -41 18 -11 10 -26 -10 -20 -14 5 -20 2 -20 -9 0 -9 4 -16
9 -16 5 0 12 -18 16 -39 4 -22 12 -42 19 -44 8 -3 16 -17 18 -30 4 -21 0 -27
-20 -32 -28 -7 -43 1 -18 11 9 3 16 12 16 19 0 16 -25 26 -45 19 -18 -7 -20 7
-4 23 7 7 8 20 5 30 -6 14 -12 8 -31 -33 -13 -28 -26 -72 -30 -97 -4 -26 -13
-52 -21 -58 -13 -11 -44 -99 -44 -126 0 -10 25 -13 104 -13 116 0 116 0 116
75 0 24 4 55 10 69 9 24 12 25 127 29 132 5 157 9 160 22 3 18 38 22 50 6 7
-9 13 -11 13 -4 0 15 64 10 85 -7 12 -10 16 -9 21 4 3 9 13 16 21 16 12 0 14
9 10 38 -7 53 -52 172 -68 183 -9 6 -10 9 -2 9 9 0 9 8 -1 32 -16 37 -36 49
-36 21 0 -10 -9 -24 -21 -31 -25 -16 -37 -8 -20 12 7 8 10 19 7 25 -4 5 0 15
7 23 22 23 12 107 -23 201 -18 48 -38 87 -43 87 -5 0 -16 8 -23 18 -11 14 -16
15 -33 4 -18 -10 -21 -10 -21 3 0 12 -17 15 -94 15 -52 0 -97 -3 -99 -7z m93
-24 c0 -15 -4 -19 -16 -15 -9 3 -18 6 -20 6 -2 0 -4 7 -4 15 0 8 9 15 20 15
14 0 20 -7 20 -21z m110 -69 c6 -11 7 -20 2 -20 -10 0 -32 21 -32 32 0 16 19
8 30 -12z m-120 0 c0 -5 -4 -10 -10 -10 -5 0 -10 5 -10 10 0 6 5 10 10 10 6 0
10 -4 10 -10z m220 -54 c0 -11 -19 -15 -25 -6 -3 5 1 10 9 10 9 0 16 -2 16 -4z
m-127 -73 c11 -34 23 -62 26 -61 3 0 15 0 26 -1 19 -2 19 -3 3 -15 -15 -11
-16 -20 -7 -67 5 -30 12 -74 16 -97 3 -24 12 -46 20 -49 18 -7 31 6 16 15 -8
5 -5 14 8 30 17 22 20 22 34 8 13 -12 14 -20 5 -37 -6 -11 -9 -27 -6 -35 3 -8
-1 -14 -9 -14 -8 0 -15 -4 -15 -10 0 -5 7 -10 15 -10 8 0 15 -4 15 -10 0 -5 8
-10 18 -11 9 0 12 -3 5 -5 -7 -3 -9 -12 -6 -20 6 -16 -12 -19 -22 -4 -4 6 -13
7 -23 2 -9 -5 -30 -8 -47 -6 -16 1 -36 3 -42 3 -24 2 -14 31 10 31 25 0 47 17
47 37 0 10 -26 13 -109 13 l-109 0 14 53 c7 28 14 53 14 55 0 9 -80 -1 -104
-13 -30 -16 -44 -19 -33 -8 4 3 2 12 -4 20 -9 10 -7 13 10 13 11 0 21 5 21 11
0 12 72 8 103 -5 15 -7 17 -2 17 35 0 24 7 53 15 63 8 11 15 34 15 50 0 45 20
108 32 104 6 -2 20 -32 31 -65z m-110 -31 c-3 -12 -9 -22 -14 -22 -12 0 -11 7
3 30 15 24 19 21 11 -8z m-83 -12 c8 -5 12 -12 9 -15 -8 -8 -39 5 -39 16 0 11
11 11 30 -1z m-30 -40 c0 -5 -2 -10 -4 -10 -3 0 -8 5 -11 10 -3 6 -1 10 4 10
6 0 11 -4 11 -10z m418 -92 c-6 -17 -36 -34 -44 -25 -4 4 1 14 12 22 23 18 37
19 32 3z m-339 -161 c-2 -1 -12 -9 -21 -16 -15 -12 -18 -11 -18 3 0 10 8 16
22 16 12 0 19 -1 17 -3z m-77 -133 c-5 -27 -9 -29 -27 -14 -10 8 -15 9 -15 1
0 -6 -7 -11 -15 -11 -8 0 -15 5 -15 11 0 6 -7 9 -15 5 -8 -3 -15 -1 -15 5 0
14 39 27 75 25 24 -2 29 -6 27 -22z"/>
<path d="M1740 888 c0 -3 21 -19 46 -37 25 -18 43 -35 41 -37 -9 -10 -57 16
-57 31 0 8 -7 15 -15 15 -12 0 -15 -19 -15 -110 l0 -110 50 0 c28 0 50 -4 50
-10 0 -5 -13 -10 -30 -10 -16 0 -31 -4 -31 -10 -1 -5 -2 -15 -3 -21 0 -6 -8
-16 -17 -23 -19 -13 -23 -85 -13 -264 5 -85 10 -112 20 -112 8 0 14 -11 14
-26 0 -25 1 -26 60 -22 47 2 62 0 72 -14 11 -15 13 -16 21 -3 4 8 21 15 37 15
16 0 32 5 35 10 5 8 11 8 20 0 7 -6 51 -13 97 -15 45 -2 91 -6 100 -10 25 -10
12 -25 -22 -25 -16 0 -31 -4 -34 -8 -3 -5 -19 -7 -37 -4 -24 3 -30 1 -27 -9 6
-17 45 -24 61 -11 7 5 36 13 66 17 40 5 55 12 58 26 6 20 33 27 33 7 0 -7 6
-6 18 4 9 8 25 18 35 21 10 4 15 11 12 17 -3 5 0 10 9 10 53 0 68 269 16 283
-13 3 -18 11 -14 20 3 9 12 13 20 10 10 -4 14 3 14 26 0 25 -4 31 -21 31 -18
0 -21 5 -17 32 6 41 -19 93 -52 106 l-25 10 28 1 c31 1 35 18 10 37 -10 7 -15
15 -12 18 12 13 40 -7 54 -38 12 -27 13 -28 14 -8 1 27 -25 82 -39 82 -6 0
-10 -4 -10 -10 0 -14 -28 -12 -32 2 -3 7 2 19 9 27 12 11 11 16 -9 30 -13 9
-27 14 -33 13 -5 -2 -14 4 -21 12 -6 9 -31 19 -55 24 -62 10 -298 4 -279 -8 8
-5 11 -12 7 -16 -4 -4 -16 1 -28 12 -16 14 -40 20 -100 23 -43 2 -79 1 -79 -1z
m300 -61 c0 -5 -10 -5 -22 -1 -29 8 -31 10 -24 23 8 12 46 -7 46 -22z m-95
-25 c-2 -2 -13 2 -24 10 -12 8 -18 17 -15 21 3 3 14 -2 25 -11 10 -9 17 -18
14 -20z m265 34 c0 -11 -19 -15 -25 -6 -3 5 1 10 9 10 9 0 16 -2 16 -4z m-45
-16 c3 -5 1 -10 -4 -10 -6 0 -11 5 -11 10 0 6 2 10 4 10 3 0 8 -4 11 -10z
m-295 -10 c0 -5 -2 -10 -4 -10 -2 0 -12 -3 -22 -7 -16 -6 -17 -5 -4 10 17 19
30 22 30 7z m186 -25 c9 -14 14 -28 11 -31 -7 -7 -47 32 -47 46 0 18 19 10 36
-15z m-52 -14 c17 -18 16 -19 -11 -18 -26 2 -43 13 -43 30 0 14 37 7 54 -12z
m211 -1 c0 -8 -10 -16 -22 -18 -13 -2 -23 1 -23 7 0 6 -20 11 -45 11 -25 0
-45 5 -45 10 0 6 27 9 68 8 52 -2 67 -6 67 -18z m-355 -10 c0 -5 -4 -10 -9
-10 -6 0 -13 5 -16 10 -3 6 1 10 9 10 9 0 16 -4 16 -10z m80 -65 c0 -5 -4 -16
-9 -24 -8 -12 -12 -12 -24 -2 -12 10 -20 10 -37 -1 -18 -11 -23 -10 -36 7 -14
19 -13 20 25 23 37 3 41 6 41 30 l0 27 20 -25 c11 -14 20 -29 20 -35z m203 18
c26 -8 47 -18 47 -22 0 -4 7 -16 15 -27 14 -19 14 -19 9 1 -5 25 10 50 25 41
6 -4 11 -20 11 -35 0 -15 4 -31 9 -37 5 -5 12 -19 16 -31 5 -20 3 -23 -19 -23
-14 0 -26 -2 -26 -4 0 -16 14 -36 26 -36 8 0 14 -6 14 -12 0 -23 16 -39 33
-32 24 9 21 27 -5 39 -12 6 -24 17 -26 25 -4 12 -2 13 9 3 7 -7 27 -13 44 -13
16 0 39 -8 50 -16 20 -15 20 -15 0 -30 -11 -8 -24 -13 -31 -10 -19 7 -3 -43
18 -58 14 -10 16 -16 7 -21 -7 -5 -16 -1 -21 9 -5 9 -18 16 -29 16 -21 0 -59
19 -71 35 -4 6 -8 -2 -8 -17 0 -20 4 -26 14 -22 8 3 23 1 33 -4 16 -9 15 -11
-8 -17 -14 -3 -32 -5 -39 -3 -11 2 -14 -6 -11 -30 5 -62 -43 -152 -82 -152 -7
0 -21 -6 -32 -14 -30 -20 -144 -32 -149 -14 -3 7 -7 123 -10 258 -2 135 -7
253 -11 262 -6 15 1 16 72 11 43 -2 99 -11 126 -20z m-323 7 c0 -5 -7 -7 -15
-4 -8 4 -15 8 -15 10 0 2 7 4 15 4 8 0 15 -4 15 -10z m500 -70 c0 -5 -4 -10
-10 -10 -5 0 -10 5 -10 10 0 6 5 10 10 10 6 0 10 -4 10 -10z m40 0 c0 -5 -4
-10 -10 -10 -5 0 -10 5 -10 10 0 6 5 10 10 10 6 0 10 -4 10 -10z m-442 -67 c5
-18 -10 -16 -34 2 -18 15 -18 15 5 13 14 -2 26 -9 29 -15z m30 -41 c6 -18 -15
-14 -22 4 -4 10 -1 14 6 12 6 -2 14 -10 16 -16z m-73 -102 c3 -5 1 -10 -4 -10
-6 0 -11 5 -11 10 0 6 2 10 4 10 3 0 8 -4 11 -10z m-43 -22 c-6 -6 -15 -8 -19
-4 -4 4 -1 11 7 16 19 12 27 3 12 -12z m576 -77 c12 -10 19 -21 16 -24 -7 -6
-44 24 -44 35 0 12 5 10 28 -11z m-498 -106 c0 -8 -4 -15 -10 -15 -5 0 -10 7
-10 15 0 8 5 15 10 15 6 0 10 -7 10 -15z m218 -47 c-5 -16 -48 -24 -48 -10 0
11 17 20 38 21 8 1 12 -5 10 -11z m152 -78 c0 -5 -4 -10 -10 -10 -5 0 -10 5
-10 10 0 6 5 10 10 10 6 0 10 -4 10 -10z"/>
<path d="M2232 613 c2 -9 9 -18 16 -21 18 -6 15 25 -4 32 -11 4 -14 1 -12 -11z"/>
<path d="M2523 883 c-15 -5 -18 -94 -4 -109 6 -5 5 -33 -1 -69 -8 -44 -8 -79
1 -132 7 -40 11 -120 10 -180 -1 -72 2 -108 10 -111 6 -2 11 3 11 11 0 8 10
17 22 20 28 8 38 -2 15 -14 -9 -6 -17 -19 -17 -29 0 -14 -7 -20 -24 -20 -24 0
-24 -1 -25 -105 l-1 -105 28 0 c38 0 77 41 69 72 -4 14 0 29 10 40 10 11 12
18 5 18 -15 0 -15 37 0 46 7 4 8 3 4 -4 -4 -7 -1 -12 9 -12 9 0 13 -5 10 -10
-3 -6 1 -13 9 -16 9 -4 16 -18 16 -34 0 -33 15 -48 24 -24 3 9 6 34 7 57 0 23
4 51 8 62 4 11 4 35 -1 54 -6 21 -6 37 0 43 7 7 7 18 0 34 -11 25 -5 54 12 54
5 0 10 -6 10 -13 0 -20 83 -37 104 -22 9 7 16 15 16 19 0 9 26 36 34 36 14 0
4 -26 -14 -38 -11 -7 -20 -19 -20 -26 0 -8 9 -18 20 -21 11 -3 20 -11 20 -16
0 -5 -9 -9 -20 -9 -11 0 -20 5 -20 10 0 6 -7 10 -15 10 -20 0 -19 -11 8 -57
22 -39 44 -45 75 -20 7 5 16 7 20 3 10 -10 -27 -36 -51 -36 -18 0 -19 -2 -5
-17 9 -10 19 -29 23 -41 4 -13 15 -32 26 -43 10 -10 21 -30 25 -43 5 -21 15
-27 61 -36 58 -13 147 -5 138 11 -4 5 -1 9 4 9 6 0 11 -4 11 -10 0 -5 9 -10
20 -10 11 0 20 2 20 5 0 3 -25 43 -55 90 -30 47 -64 103 -75 125 -11 22 -27
40 -35 40 -8 0 -15 7 -15 15 0 8 -5 15 -10 15 -6 0 -9 3 -8 7 0 5 -2 16 -7 27
-6 14 -2 23 16 37 13 10 30 19 37 19 7 0 30 16 52 36 33 31 40 44 46 90 3 30
10 57 15 60 12 7 11 61 -1 69 -5 3 -10 19 -10 35 0 18 -13 44 -36 71 -44 53
-60 64 -101 73 -37 8 -491 16 -510 9z m377 -28 c-7 -9 -15 -13 -17 -11 -7 7 7
26 19 26 6 0 6 -6 -2 -15z m97 -10 c-4 -8 -14 -15 -23 -15 -16 0 -16 2 1 20
20 22 31 20 22 -5z m-217 -38 c0 -16 -66 -54 -75 -45 -7 7 25 43 46 51 23 9
29 8 29 -6z m180 3 c0 -5 -17 -21 -37 -35 -29 -19 -33 -25 -18 -25 25 -1 45
-16 69 -54 20 -32 16 -84 -11 -125 -14 -22 -14 -25 1 -36 27 -20 18 -26 -15
-10 -20 11 -34 13 -42 7 -7 -6 -48 -13 -93 -17 l-81 -7 -7 32 c-3 18 -6 53 -6
79 -1 42 -2 45 -15 27 -19 -25 -25 -19 -18 17 3 15 11 27 19 27 10 0 12 8 8
30 l-6 30 65 0 c77 0 113 11 122 39 4 12 12 18 21 14 7 -3 14 0 14 6 0 6 7 11
15 11 8 0 15 -4 15 -10z m-120 -4 c0 -3 -4 -8 -10 -11 -5 -3 -10 -1 -10 4 0 6
5 11 10 11 6 0 10 -2 10 -4z m207 -48 c-3 -7 -5 -2 -5 12 0 14 2 19 5 13 2 -7
2 -19 0 -25z m-487 -9 c0 -8 13 -9 39 -5 23 3 42 2 46 -4 4 -6 11 -8 16 -5 5
4 14 3 19 0 13 -8 -20 -54 -39 -55 -8 0 -23 -7 -33 -17 -10 -9 -21 -13 -26 -9
-4 4 5 17 21 28 29 21 37 41 12 32 -8 -4 -30 -3 -49 0 -28 5 -33 10 -29 26 6
21 23 28 23 9z m608 -71 c-7 -19 -38 -22 -38 -4 0 10 9 16 21 16 12 0 19 -5
17 -12z m-568 -103 c0 -8 -4 -15 -10 -15 -5 0 -10 7 -10 15 0 8 5 15 10 15 6
0 10 -7 10 -15z m150 -104 c0 -10 -7 -24 -15 -31 -16 -13 -18 -8 -9 28 8 27
24 29 24 3z m-135 -1 c3 -5 1 -10 -4 -10 -6 0 -11 5 -11 10 0 6 2 10 4 10 3 0
8 -4 11 -10z m25 -20 c0 -5 -5 -10 -11 -10 -5 0 -7 5 -4 10 3 6 8 10 11 10 2
0 4 -4 4 -10z m150 0 c0 -5 -5 -10 -11 -10 -5 0 -7 5 -4 10 3 6 8 10 11 10 2
0 4 -4 4 -10z m-90 -30 c0 -5 -5 -10 -11 -10 -5 0 -7 5 -4 10 3 6 8 10 11 10
2 0 4 -4 4 -10z m-35 -20 c3 -5 1 -10 -4 -10 -6 0 -11 5 -11 10 0 6 2 10 4 10
3 0 8 -4 11 -10z m18 -84 c4 -9 -8 -19 -36 -30 -51 -20 -60 -12 -22 19 34 28
51 31 58 11z m-73 -87 c0 -24 -23 -21 -28 4 -2 10 3 17 12 17 10 0 16 -9 16
-21z m90 -23 c0 -16 -18 -31 -27 -22 -8 8 5 36 17 36 5 0 10 -6 10 -14z m305
-76 c3 -5 1 -10 -4 -10 -6 0 -11 5 -11 10 0 6 2 10 4 10 3 0 8 -4 11 -10z"/>
<path d="M3287 884 c-3 -3 -2 -16 2 -28 5 -11 6 -27 4 -33 -3 -9 10 -13 46
-13 39 0 51 4 51 15 0 8 -7 15 -15 15 -18 0 -20 16 -2 23 6 3 0 10 -16 16 -31
12 -60 14 -70 5z"/>
<path d="M3463 883 c-29 -2 -53 -8 -53 -13 0 -5 7 -7 15 -4 11 4 15 -1 16 -17
0 -22 1 -22 8 -5 5 12 10 15 14 9 4 -6 0 -16 -8 -23 -17 -14 -20 -40 -5 -40 7
0 7 -7 2 -17 -12 -26 -9 -56 7 -61 9 -3 11 0 6 8 -6 9 -1 10 16 5 13 -4 24 -8
25 -9 36 -59 44 -76 37 -77 -4 0 1 -4 12 -8 11 -4 28 -6 38 -3 17 4 18 11 13
50 -3 25 -6 58 -6 73 0 26 -4 29 -30 29 -16 0 -30 5 -30 10 0 6 14 10 31 10
18 0 28 4 24 10 -4 7 12 8 48 4 l54 -6 5 31 c3 18 0 35 -5 38 -12 7 -167 12
-234 6z m37 -97 c0 -11 -19 -15 -25 -6 -3 5 1 10 9 10 9 0 16 -2 16 -4z"/>
<path d="M3880 883 c-8 -3 -18 -10 -21 -16 -4 -5 -14 -5 -27 2 -15 8 -21 8
-25 -2 -3 -9 -7 -9 -20 2 -16 12 -17 7 -17 -71 0 -71 3 -88 19 -102 20 -19 19
-39 -6 -67 -12 -14 -11 -17 7 -22 11 -3 33 -1 48 3 l27 8 -27 1 c-15 1 -30 6
-33 11 -7 12 122 6 134 -5 3 -4 -3 -13 -13 -21 -13 -9 -15 -14 -6 -14 11 0 11
-3 2 -12 -9 -9 -25 -9 -68 0 -31 6 -61 9 -67 5 -10 -6 -4 -165 8 -195 5 -12
18 -18 40 -18 23 0 38 -7 51 -25 10 -14 24 -25 31 -25 7 0 13 -4 13 -10 0 -16
-37 -12 -44 5 -3 8 -14 15 -25 15 -11 0 -23 5 -26 10 -3 6 -13 10 -21 10 -11
0 -14 -16 -14 -75 0 -48 4 -75 11 -75 6 0 8 -7 5 -15 -3 -8 -9 -22 -12 -30 -5
-11 1 -15 20 -15 33 0 33 -13 0 -28 -18 -9 -24 -19 -22 -35 3 -21 9 -22 91
-25 87 -3 87 -3 87 22 0 23 -4 25 -52 28 -33 2 -53 8 -56 17 -4 11 4 13 37 7
32 -5 41 -3 35 5 -5 9 -2 10 9 6 13 -5 17 -1 17 16 0 13 -5 28 -12 35 -9 9 -9
12 0 12 11 0 10 141 -2 390 -1 21 3 24 24 22 31 -5 38 -11 22 -21 -10 -6 1
-31 40 -95 29 -48 62 -103 73 -122 15 -25 27 -34 47 -34 15 0 30 -5 34 -12 5
-8 2 -9 -10 -5 -11 4 -19 1 -23 -10 -4 -9 -1 -19 5 -21 7 -2 19 -17 27 -33 10
-18 24 -29 38 -30 12 0 16 -3 10 -6 -20 -7 -16 -28 11 -60 13 -15 31 -45 39
-66 l16 -37 85 0 86 0 0 36 c0 34 -1 35 -32 32 -28 -2 -34 -8 -36 -30 -5 -41
-22 -34 -22 10 -1 30 -3 34 -11 20 -14 -24 -55 -23 -62 1 -8 31 9 48 32 34 15
-10 21 -10 24 0 3 9 9 9 23 1 11 -6 34 -9 52 -6 l32 4 0 63 c0 59 -2 63 -25
69 -16 4 -38 -1 -62 -14 -39 -21 -73 -26 -73 -11 0 23 62 43 133 42 l27 0 0
87 c0 48 -4 92 -8 98 -4 6 -28 16 -55 24 -26 7 -51 18 -55 26 -9 16 -62 7 -62
-11 0 -7 6 -16 13 -18 9 -4 9 -8 -2 -15 -10 -7 -12 -23 -7 -60 4 -35 3 -53 -6
-58 -6 -4 -14 -2 -16 4 -2 7 -18 34 -36 60 -18 26 -35 55 -39 65 -3 9 -13 17
-21 17 -9 0 -16 11 -18 28 -2 22 -8 27 -33 28 -48 1 -57 3 -51 13 3 5 14 7 25
4 15 -4 18 0 14 21 -6 30 -42 36 -63 11 -10 -12 -16 -13 -26 -4 -21 17 -17 29
10 29 59 0 64 19 19 73 -13 16 -23 34 -23 40 0 25 -57 77 -84 77 -23 0 -26 3
-21 20 5 16 2 20 -17 19 -13 0 -30 -3 -38 -6z m-10 -213 c0 -5 -4 -10 -10 -10
-5 0 -10 5 -10 10 0 6 5 10 10 10 6 0 10 -4 10 -10z m105 -10 c3 -5 2 -10 -4
-10 -5 0 -13 5 -16 10 -3 6 -2 10 4 10 5 0 13 -4 16 -10z m82 -66 c-3 -3 -12
-4 -19 -1 -8 3 -5 6 6 6 11 1 17 -2 13 -5z m-117 -50 c0 -8 -4 -12 -10 -9 -5
3 -10 10 -10 16 0 5 5 9 10 9 6 0 10 -7 10 -16z m410 -14 c0 -5 -2 -10 -4 -10
-3 0 -8 5 -11 10 -3 6 -1 10 4 10 6 0 11 -4 11 -10z m-197 -57 c-3 -7 -10 -13
-15 -13 -6 0 -7 7 -4 16 3 9 6 21 6 27 0 7 4 7 9 -2 5 -8 7 -20 4 -28z m47
-83 c0 -5 -4 -10 -10 -10 -5 0 -10 5 -10 10 0 6 5 10 10 10 6 0 10 -4 10 -10z
m155 -50 c3 -5 1 -10 -4 -10 -6 0 -11 5 -11 10 0 6 2 10 4 10 3 0 8 -4 11 -10z
m-125 -20 c0 -5 -2 -10 -4 -10 -3 0 -8 5 -11 10 -3 6 -1 10 4 10 6 0 11 -4 11
-10z m60 0 c0 -5 -4 -10 -10 -10 -5 0 -10 5 -10 10 0 6 5 10 10 10 6 0 10 -4
10 -10z m0 -75 c0 -8 -4 -15 -10 -15 -5 0 -10 7 -10 15 0 8 5 15 10 15 6 0 10
-7 10 -15z m60 -15 l20 -20 -24 0 c-27 0 -41 14 -31 30 9 14 12 13 35 -10z
m55 11 c3 -5 1 -12 -5 -16 -5 -3 -10 -2 -10 4 0 5 -10 12 -22 14 -20 4 -20 4
4 6 15 0 29 -3 33 -8z m-113 -51 c-12 -11 -24 -20 -28 -20 -4 0 1 9 11 20 10
11 23 20 28 20 6 0 1 -9 -11 -20z m-407 -40 c-3 -5 -11 -10 -16 -10 -6 0 -7 5
-4 10 3 6 11 10 16 10 6 0 7 -4 4 -10z"/>
<path d="M4586 836 c-3 -28 -7 -120 -9 -203 -3 -123 -1 -153 10 -153 17 0 17
-19 -2 -40 -22 -24 -9 -49 23 -47 23 2 27 -2 27 -23 0 -14 5 -24 11 -23 6 1
11 -5 11 -13 0 -20 -44 -18 -55 3 -6 10 -16 14 -27 9 -16 -6 -17 -17 -11 -124
4 -64 9 -125 12 -135 8 -25 22 -12 17 16 -3 14 2 29 11 36 14 12 16 10 16 -13
0 -14 -1 -29 -2 -32 -2 -4 8 -11 22 -16 24 -10 24 -11 5 -18 -15 -7 -16 -9 -4
-9 19 -1 45 26 36 36 -12 12 28 32 53 26 35 -8 49 -23 21 -23 -20 0 -51 -20
-51 -34 0 -11 299 -6 305 4 3 6 -1 10 -9 10 -9 0 -16 5 -16 11 0 5 -4 8 -9 5
-5 -3 -11 5 -13 17 -4 20 -1 23 25 19 18 -3 31 -12 34 -23 3 -11 10 -19 15
-19 5 0 7 9 3 19 -3 11 -1 22 5 26 5 3 10 15 10 26 0 10 5 19 11 19 7 0 9 -10
7 -25 -3 -14 -1 -28 3 -31 5 -3 9 2 9 11 0 11 7 15 23 13 18 -2 23 -10 25 -45
l3 -43 55 0 c62 0 60 -2 68 88 5 52 3 64 -10 69 -9 3 -20 0 -24 -7 -6 -10 -12
-11 -22 -2 -9 7 -77 10 -221 7 l-207 -4 -2 75 c-4 156 -10 139 47 139 28 1 57
5 65 10 8 5 49 8 92 6 74 -2 78 -1 78 19 0 16 4 20 15 16 9 -3 15 0 15 9 0 8
-9 15 -20 15 -11 0 -20 -7 -20 -15 0 -18 -16 -20 -27 -2 -7 12 -23 19 -88 42
l-20 7 20 8 c19 9 19 9 -2 16 -13 3 -20 10 -17 15 3 5 -25 9 -61 9 -37 0 -75
5 -86 10 -10 6 -19 7 -19 2 0 -5 -18 -17 -40 -28 -22 -10 -40 -22 -40 -26 0
-5 -7 -8 -15 -8 -21 0 1 34 32 51 12 7 25 20 29 31 6 19 44 26 44 7 0 -5 5 -7
10 -4 6 3 10 21 10 38 0 58 9 73 48 83 34 8 37 12 37 47 0 23 5 37 13 37 7 0
12 -14 12 -35 0 -28 4 -35 20 -35 15 0 20 7 20 26 0 19 4 25 18 22 9 -2 22 2
27 8 6 6 39 15 75 18 59 6 63 5 46 -9 -11 -8 -27 -15 -37 -15 -14 0 -49 -39
-49 -55 0 -3 47 -5 104 -5 119 0 116 -2 116 88 l0 57 -33 -1 c-17 0 -45 -6
-60 -12 -36 -15 -37 -15 -37 4 0 12 -6 15 -22 11 -12 -4 -28 -1 -35 5 -17 14
-157 5 -177 -11 -8 -6 -16 -8 -18 -3 -1 5 -58 12 -125 14 l-122 5 -5 -51z
m284 -1 c0 -8 -4 -15 -10 -15 -5 0 -10 7 -10 15 0 8 5 15 10 15 6 0 10 -7 10
-15z m-30 -305 c0 -5 -4 -10 -10 -10 -5 0 -10 5 -10 10 0 6 5 10 10 10 6 0 10
-4 10 -10z m17 -40 c-9 -13 -17 -17 -22 -11 -3 6 -19 11 -36 11 -16 0 -29 5
-29 11 0 8 15 9 45 5 33 -5 45 -4 45 5 0 7 3 10 6 6 3 -3 -1 -15 -9 -27z
m-102 10 c-3 -5 -10 -10 -16 -10 -5 0 -9 5 -9 10 0 6 7 10 16 10 8 0 12 -4 9
-10z m20 -40 c3 -5 2 -10 -4 -10 -5 0 -13 5 -16 10 -3 6 -2 10 4 10 5 0 13 -4
16 -10z m-131 -176 c22 -9 20 -24 -3 -24 -21 0 -34 13 -24 24 8 7 8 7 27 0z
m12 -43 c-3 -5 -15 -7 -26 -4 -28 7 -25 13 6 13 14 0 23 -4 20 -9z m-26 -40
c0 -11 -4 -23 -10 -26 -6 -4 -10 5 -10 19 0 14 5 26 10 26 6 0 10 -9 10 -19z
m273 -78 c-7 -2 -19 -2 -25 0 -7 3 -2 5 12 5 14 0 19 -2 13 -5z"/>
<path d="M5866 873 c-13 -13 -20 -15 -23 -5 -12 31 -93 -9 -93 -46 0 -7 -4
-12 -9 -12 -5 0 -17 -18 -27 -40 -10 -22 -21 -40 -25 -40 -4 0 -10 -11 -13
-24 -3 -14 -12 -31 -19 -38 -32 -35 -58 -81 -53 -94 3 -8 -1 -14 -9 -14 -8 0
-26 -20 -40 -44 -29 -50 -25 -65 38 -129 20 -21 37 -45 37 -53 0 -8 6 -17 14
-20 8 -3 17 -15 21 -27 6 -21 7 -20 16 8 5 17 7 36 4 43 -2 6 0 12 6 12 6 0 9
7 5 15 -3 8 -1 15 4 15 6 0 10 -6 10 -12 0 -9 3 -9 9 1 8 12 14 12 39 2 33
-14 51 -41 27 -41 -8 0 -15 4 -15 9 0 5 -11 8 -25 7 -21 -1 -25 -6 -27 -36 -4
-64 3 -115 16 -129 17 -16 72 -6 80 15 3 8 14 14 25 14 14 0 18 -7 17 -29 -2
-39 -11 -47 -31 -28 -12 13 -21 14 -39 5 l-24 -10 20 -35 c29 -48 89 -77 142
-68 23 4 65 6 94 6 28 0 52 2 52 5 0 3 -20 29 -45 57 -25 29 -45 55 -45 59 0
13 -48 9 -52 -4 -6 -16 -38 -2 -38 17 0 9 12 18 30 22 17 3 30 8 30 10 0 7
-40 58 -77 98 -18 20 -33 40 -33 45 0 6 -13 24 -30 42 -16 17 -30 34 -30 39 0
4 -9 11 -20 14 -13 4 -20 15 -20 30 0 15 -10 31 -26 41 -32 22 -14 35 30 23
40 -12 41 -11 27 4 -6 8 -8 17 -4 20 3 4 1 7 -5 7 -7 0 -12 5 -12 11 0 6 7 9
15 6 11 -5 13 1 9 26 -3 18 -7 38 -9 44 -2 7 2 16 9 20 7 5 15 16 19 26 11 29
25 19 24 -18 -2 -64 17 -61 61 10 23 36 48 68 57 71 8 4 15 12 15 20 0 8 14
28 30 46 17 17 30 35 30 39 0 5 -28 9 -63 9 -46 0 -68 -5 -81 -17z m-16 -23
c8 -5 11 -13 6 -17 -5 -4 -11 -2 -13 5 -3 6 -9 10 -14 6 -5 -3 -9 0 -9 5 0 13
10 14 30 1z m90 -4 c0 -14 -29 -31 -38 -21 -6 6 18 35 29 35 5 0 9 -6 9 -14z
m-90 -46 c0 -5 -2 -10 -4 -10 -3 0 -8 5 -11 10 -3 6 -1 10 4 10 6 0 11 -4 11
-10z m-120 -350 c0 -23 -8 -24 -47 -9 l-28 12 25 7 c41 13 50 11 50 -10z m110
-209 c0 -6 -4 -13 -10 -16 -5 -3 -10 1 -10 9 0 9 5 16 10 16 6 0 10 -4 10 -9z
m163 -126 c1 -5 -6 -11 -15 -13 -11 -2 -18 3 -18 13 0 17 30 18 33 0z m37 -45
c0 -5 -4 -10 -10 -10 -5 0 -10 5 -10 10 0 6 5 10 10 10 6 0 10 -4 10 -10z"/>
<path d="M4330 861 c0 -5 9 -13 20 -16 11 -4 18 -11 14 -16 -3 -6 -12 -8 -19
-5 -8 3 -20 -5 -28 -17 -12 -18 -12 -24 -1 -35 7 -6 20 -9 28 -6 9 3 16 1 16
-5 0 -6 5 -10 11 -8 14 3 21 -31 8 -39 -13 -8 -11 -34 2 -34 7 0 27 -16 46
-35 19 -19 31 -35 28 -35 -13 0 -51 24 -73 46 -13 12 -36 27 -52 33 -28 9 -30
8 -36 -24 -3 -18 -3 -47 1 -63 6 -27 8 -29 38 -22 33 7 44 6 106 -5 l33 -6 -6
98 c-3 54 -6 104 -6 111 0 15 -27 16 -32 1 -2 -6 -13 -9 -23 -7 -17 3 -15 7
13 21 24 14 32 24 31 45 l-1 27 -10 -27 c-5 -16 -14 -28 -20 -28 -6 0 -8 6 -5
13 3 6 8 20 12 30 4 9 3 17 -3 17 -6 0 -12 -6 -15 -12 -3 -10 -9 -10 -26 0
-25 14 -51 16 -51 3z"/>
<path d="M5328 862 c-26 -3 -28 -7 -28 -48 0 -24 5 -44 10 -44 6 0 10 -7 10
-15 0 -8 -7 -15 -15 -15 -9 0 -15 -9 -15 -24 0 -30 19 -44 31 -25 8 11 12 10
24 -5 10 -13 15 -15 15 -6 0 7 2 11 5 8 3 -3 2 -13 -1 -23 -5 -12 -14 -15 -34
-11 -25 4 -28 2 -34 -26 -3 -17 -6 -61 -6 -99 l0 -69 40 6 c33 5 40 4 40 -9 0
-9 10 -22 22 -28 21 -11 21 -12 3 -25 -26 -19 -42 -17 -48 5 -2 10 -16 20 -31
23 l-26 5 1 -167 c0 -92 -1 -171 -2 -176 -7 -38 0 -42 64 -39 85 4 124 20 132
53 4 16 2 28 -4 30 -16 5 -14 21 5 39 9 10 13 25 10 37 -3 12 -6 42 -6 69 0
35 -4 47 -15 47 -9 0 -15 9 -15 21 0 17 -3 19 -14 10 -10 -8 -16 -9 -21 -1
-11 17 6 32 31 27 32 -6 42 10 36 61 -4 36 -7 42 -28 42 -15 0 -24 6 -24 16 0
8 -4 12 -10 9 -5 -3 -10 1 -10 9 0 12 11 16 38 17 20 1 29 3 19 6 -18 5 -17 6
3 28 21 22 22 29 14 92 -4 37 -7 98 -5 136 l3 67 -28 0 c-16 0 -35 -4 -43 -9
-7 -5 -25 -6 -40 -2 -14 4 -38 5 -53 3z m42 -39 c-1 -14 -30 -47 -36 -41 -6 7
17 48 28 48 5 0 8 -3 8 -7z m28 -50 c-4 -22 -48 -31 -48 -10 0 19 10 27 32 27
13 0 18 -6 16 -17z m57 8 c7 -12 -12 -24 -25 -16 -11 7 -4 25 10 25 5 0 11 -4
15 -9z m-65 -141 c0 -5 -2 -10 -4 -10 -3 0 -8 5 -11 10 -3 6 -1 10 4 10 6 0
11 -4 11 -10z m60 -70 c0 -5 -4 -10 -10 -10 -5 0 -10 5 -10 10 0 6 5 10 10 10
6 0 10 -4 10 -10z m-55 -80 c3 -5 1 -10 -4 -10 -6 0 -11 5 -11 10 0 6 2 10 4
10 3 0 8 -4 11 -10z"/>
<path d="M4980 764 c0 -8 5 -12 10 -9 6 4 8 11 5 16 -9 14 -15 11 -15 -7z"/>
<path d="M3406 659 c-10 -97 -7 -179 5 -179 8 0 8 -4 0 -14 -8 -10 -9 -62 -5
-185 6 -143 5 -171 -7 -173 -8 0 -21 -2 -29 -3 -8 -1 -25 2 -38 7 -17 6 -24 4
-29 -8 -3 -9 -1 -19 6 -23 7 -4 11 -14 9 -22 -2 -9 8 -15 30 -17 26 -3 32 0
32 16 0 11 9 22 20 25 11 3 20 1 20 -4 0 -4 8 -5 17 -2 18 7 57 43 46 43 -4 0
-2 5 5 12 7 7 12 27 12 46 0 27 4 33 18 30 10 -2 16 -12 15 -23 -1 -11 -3 -35
-5 -54 -1 -18 -8 -35 -15 -38 -7 -3 -13 -11 -13 -19 0 -22 76 -19 85 4 4 9 9
61 11 115 2 78 0 97 -11 97 -8 0 -17 5 -21 12 -5 7 -1 9 13 6 19 -5 21 0 27
61 3 36 2 81 -2 100 -7 30 -11 34 -47 37 -21 2 -52 -3 -69 -11 -32 -16 -56
-19 -56 -7 0 12 58 34 70 27 7 -4 10 0 8 11 -2 13 2 18 15 16 11 -2 17 4 17
17 0 21 -16 35 -40 36 -11 0 -15 12 -14 48 1 46 -4 52 -35 47 -8 -1 -20 5 -27
14 -9 13 -12 4 -18 -45z m34 11 c0 -5 -4 -10 -10 -10 -5 0 -10 5 -10 10 0 6 5
10 10 10 6 0 10 -4 10 -10z m130 -199 c0 -11 -4 -23 -10 -26 -6 -4 -10 5 -10
19 0 14 5 26 10 26 6 0 10 -9 10 -19z m-40 -81 c0 -5 -4 -10 -10 -10 -5 0 -10
5 -10 10 0 6 5 10 10 10 6 0 10 -4 10 -10z m30 -30 c0 -11 -4 -20 -10 -20 -16
0 -12 -47 5 -54 16 -6 21 -46 5 -46 -5 0 -7 -7 -4 -15 7 -18 -13 -20 -30 -2
-15 15 -13 81 5 125 15 36 29 42 29 12z"/>
<path d="M3565 590 c-8 -13 3 -30 20 -30 23 0 27 18 6 30 -13 7 -22 7 -26 0z"/>
<path d="M4994 572 c4 -7 13 -12 19 -12 7 0 19 -9 27 -20 19 -27 30 -25 30 5
0 20 -5 25 -24 25 -13 0 -32 3 -42 7 -12 4 -15 3 -10 -5z"/>
<path d="M4413 540 c14 -11 32 -20 41 -20 9 0 16 8 16 20 0 17 -7 20 -41 20
l-42 0 26 -20z"/>
<path d="M1610 236 c0 -2 8 -10 18 -17 15 -13 16 -12 3 4 -13 16 -21 21 -21
13z"/>
<path d="M1464 179 c-16 -18 -17 -25 -5 -67 7 -26 16 -51 21 -56 4 -4 37 -10
72 -13 51 -4 66 -2 77 11 17 20 31 21 31 1 0 -8 7 -15 16 -15 13 0 15 7 11 36
-3 19 -14 53 -24 74 -18 38 -19 39 -70 40 -28 0 -55 -4 -58 -10 -9 -14 -21
-12 -38 5 -13 12 -17 12 -33 -6z m43 -26 c4 -9 1 -19 -5 -21 -7 -2 -12 -10
-12 -18 0 -8 -4 -14 -10 -14 -11 0 -14 53 -3 63 11 12 23 8 30 -10z"/>
<path d="M3664 115 c-4 -8 -14 -15 -25 -15 -18 0 -46 -37 -35 -48 3 -3 16 4
29 16 27 26 39 28 31 7 -11 -27 21 -16 33 12 10 21 10 28 0 35 -18 12 -27 10
-33 -7z"/>
<path d="M1760 110 c0 -5 7 -10 15 -10 8 0 15 5 15 10 0 6 -7 10 -15 10 -8 0
-15 -4 -15 -10z"/>
<path d="M1760 71 c0 -21 19 -31 61 -31 32 0 37 11 13 34 -23 23 -74 21 -74
-3z"/>
<path d="M1919 74 c-6 -8 -10 -14 -8 -14 73 -9 139 -9 139 -1 0 21 -115 34
-131 15z"/>
</g>
</svg>
